# xmcd
#
# Track frame offsets:
#	150
#	16227
#	30024
#	47458
#	64959
#	84613
#
# Disc length: 1315 seconds
#
# Revision: 0
# Processed by: cddbd v1.5.1PL0 Copyright (c) Steve Scherf et al.
# Submitted via: audiograbber 1.80
#
DISCID=3a052106
DTITLE=Jorge and Christiano - Vol.01
DYEAR=1900
DGENRE=
TTITLE0=Mais Uma Chance
TTITLE1=Não Cometa Esse Erro
TTITLE2=Porque Ligou ?
TTITLE3=Vou Te Amar
TTITLE4=Mensagem Para Ti
TTITLE5=Sai Daqui !
EXTD=
EXTT0=
EXTT1=
EXTT2=
EXTT3=
EXTT4=
EXTT5=
PLAYORDER=
